<?xml version="1.0" encoding="utf-8"?>
<!-- Generator: Adobe Illustrator 23.0.3, SVG Export Plug-In . SVG Version: 6.00 Build 0)  -->
<svg version="1.1" id="Layer_1" xmlns="http://www.w3.org/2000/svg" xmlns:xlink="http://www.w3.org/1999/xlink" x="0px" y="0px"
	 viewBox="0 0 1920 1080" style="enable-background:new 0 0 1920 1080;" xml:space="preserve">
<style type="text/css">
	.st0{fill:#F2F2F2;}
	.st1{opacity:0.15;}
	.st2{fill:#939393;}
	.st3{fill:#8F8F8F;}
	.st4{fill:#6E6E6E;}
	.st5{fill:#C7C7C7;}
	.st6{fill:#B8B8B8;}
	.st7{fill:#AEAEAE;}
</style>
<g>
	<rect class="st0" width="1920" height="1089"/>
</g>
<g id="Grupo_3" transform="translate(743.177 -592.453) rotate(11)" class="st1">
	<path id="Caminho_7" class="st2" d="M791.3,789l0,0.2l-233.9,27.2v0h0l-142.9,131l0,0.3l30,400.4v-0.1l1.5,20l-1.5-19.9
		c6.4,82.1-7,143.3-33.2,187.2c1.3-1.9,2.6-3.8,3.9-5.7l0,0l0.7-1.2c5.1-7.9,9.7-16.1,13.7-24.7l417.5-755l0.2-0.5
		C836.3,770.1,815.4,785.2,791.3,789"/>
	<path id="Caminho_8" class="st3" d="M414.5,947.5l-9-113.3L292,847.4c-8.2,1.9-16.6,3-25.1,3.4c-1.8,0.1-3.7,0.2-5.5,0.2l0,0
		c-75.4,0-136.6-61.1-136.6-136.6c0,0,0,0,0,0c0-4,0.2-8,0.5-11.9l0,0.1L17,1371.3c16.5-63.1,69.1-119.9,95.3-146.7L414.5,947.5z"/>
	<path id="Caminho_9" class="st4" d="M237.8,1628.7c0.6,0,1.3,0,1.9-0.1c69.3-2.2,133.8-29.6,171.6-93.2
		c26.1-43.9,39.6-105.1,33.2-187.2l-30-400.4l0-0.3l-302.2,277.2c-26.2,26.8-78.7,83.6-95.3,146.7c-3.3,12.3-5,25-5.1,37.7
		c0,83.9,47.7,160.4,123,197.3c29.8,14.6,62.5,22.3,95.7,22.4c0.2,0,0.4,0,0.6,0c0.6,0,1.2,0,1.8,0
		C234.6,1628.7,236.2,1628.7,237.8,1628.7"/>
	<path id="Caminho_10" class="st5" d="M390.9,673.7c3,9.7,4.9,19.6,5.7,29.7l0-1.1l0.3,4.2c0,0.3,0,0.5,0.1,0.8l8.5,125.5l0.1,1.2
		l151.9-17.7h0v0l0,0L726,661.8l4-3.6l3.7-3.4l0.2,0.2c13.1-10.5,29.4-16.3,46.2-16.5h-0.5l-487.4-57.2c-9.9-2.3-20-3.5-30.1-3.6
		h-0.4C321,578.2,373.3,617,390.9,673.7"/>
	<path id="Caminho_11" class="st6" d="M733.7,654.7l-3.7,3.4l-4,3.6L557.3,816.4l0,0l233.9-27.3l0-0.2c24.1-3.7,45-18.9,56.1-40.6
		c5.4-10.6,8.1-22.2,8.1-34.1c0-19.9-7.8-38.9-21.7-53.1c-10.5-10.7-23.9-18.1-38.6-21.2c-5-1-10-1.6-15.1-1.6
		c-16.8,0.2-33.1,6-46.2,16.5L733.7,654.7z"/>
	<path id="Caminho_12" class="st7" d="M125.3,702.3c-0.3,3.9-0.6,7.9-0.6,12c0,75.4,61.1,136.6,136.6,136.6c0,0,0,0,0.1,0l0,0
		c1.9,0,3.7-0.1,5.5-0.2c8.4-0.4,16.8-1.5,25.1-3.4l113.4-13.2l-0.1-1.2l-8.5-125.5c0-0.3,0-0.5,0-0.8l-0.3-4.2l0,1.1
		c-0.8-10.1-2.7-20.1-5.7-29.7c-17.7-56.7-69.9-95.6-129.3-96.1h-1.4c-1.3,0-2.6,0.1-3.9,0.1c-3.1,0.1-6.3,0.3-9.4,0.6
		C182,585.3,131,637.2,125.3,702.3"/>
</g>
</svg>
