<svg id="Layer_1" data-name="Layer 1" xmlns="http://www.w3.org/2000/svg" viewBox="0 0 1334.81 448.21"><defs><style>.cls-1{font-size:125.39px;fill:#99bcab;}.cls-1,.cls-6{font-family:Helvetica-Bold, Helvetica;font-weight:700;}.cls-2,.cls-3,.cls-4,.cls-5,.cls-6{fill:#4b858e;}.cls-3{letter-spacing:-0.11em;}.cls-4{letter-spacing:-0.06em;}.cls-5{letter-spacing:-0.02em;}.cls-6{font-size:62.23px;}.cls-7{letter-spacing:-0.04em;}.cls-8{fill:#57b6b2;}.cls-9{fill:#e47e3d;}.cls-10{fill:#f5ce3e;}</style></defs><title>logo</title><text class="cls-1" transform="translate(642.03 212.86)">ES<tspan class="cls-2" x="167.26" y="0">VIRI</tspan><tspan class="cls-3" x="411.14" y="0">A</tspan><tspan class="cls-4" x="487.37" y="0">T</tspan><tspan class="cls-5" x="555.96" y="0">O</tspan></text><text class="cls-6" transform="translate(649.81 296.81)">associação de pais</text><text class="cls-6" transform="translate(650.2 368.66)">e enc<tspan class="cls-7" x="159.11" y="0">.</tspan><tspan x="173.92" y="0" xml:space="preserve"> de educação</tspan></text><path class="cls-8" d="M526.44,118.75c2,3.32,6,10.44,3.78,21.74A30.66,30.66,0,0,1,520.06,157c-3.81,3.12-7.35,5.33-8,7.11-2,4.52,1.06,9.5,2.49,11.07.94,1,20.57,19.82,30.56,28.11,3.17,2.62,6,5.49,5.69,10-.43,6.88-36.43,82.94-40,91.45-.8,1.88-50.25,112.88-54.18,119.37-6.6,10.92-24.59,20.76-45.95,13.75-21.67-5.82-31.23-24.17-30.77-36.91.28-7.58,19.25-127.46,19.49-129.48,1.19-9.08,12.92-91.56,17.2-98.31,2.43-3.84,6.16-4.82,10.24-5.28,12.87-1.46,39.54-6.43,40.89-6.77,2-.53,7.35-3,8.14-7.9.39-1.85-1.35-5.64-2.83-10.33-2.29-7.27-1.13-15.36.72-19.55,4.67-10.58,12.16-14.57,15.63-16.06,6.28-2.69,12.71-3.45,21.42-.94,9.75,2.82,15.7,12.36,15.7,12.36"/><path class="cls-9" d="M71.9,34.11c-2.62,4.09-7.85,12.85-5.44,27a38.46,38.46,0,0,0,12.16,21c4.66,4,9,6.9,9.8,9.14C90.8,97,86.79,103.12,85,105c-1.21,1.26-26.35,24.1-39.11,34.12-4,3.17-7.64,6.67-7.43,12.36.32,8.62,42.81,104.83,47,115.58.93,2.37,59.09,142.67,63.79,150.91,7.9,13.86,30.05,26.75,57,18.69,27.26-6.58,39.81-29.19,39.65-45.12-.09-9.48-19.88-159.88-20.12-162.41-1.19-11.39-13.14-114.82-18.27-123.39-2.92-4.88-7.54-6.23-12.62-6.94-16-2.25-49.2-9.32-50.87-9.8-2.55-.73-9.09-4-9.91-10.13-.44-2.33,1.86-7,3.86-12.82,3.11-9,1.92-19.16-.25-24.45-5.49-13.37-14.72-18.6-19-20.57-7.75-3.57-15.77-4.73-26.73-1.87-12.28,3.2-20,14.92-20,14.92"/><path class="cls-10" d="M329.46,217.71a18.78,18.78,0,0,1,6.19,13,20,20,0,0,1-3.5,12.18c-1.85,2.63-3.69,4.65-3.81,5.88-.48,3.21,2.33,5.8,3.51,6.54.77.48,16.42,8.87,24.16,12.33,2.46,1.1,4.72,2.42,5.34,5.33.94,4.41-8.4,58.6-9.18,64.59-.17,1.32-11.85,79.86-13.19,84.64-2.24,8-11.84,17.38-26.51,16.71-14.67.12-23.9-9.75-25.84-17.85-1.16-4.82-10.22-83.61-10.42-84.93-.84-5.92-7.91-59.9-6.4-64.9.86-2.84,3-4.11,5.52-5.12,7.85-3.17,23.77-11,24.56-11.43,1.2-.69,4.1-3.18,3.74-6.39-.08-1.24-1.84-3.32-3.59-6a19.91,19.91,0,0,1-3-12.44,19.52,19.52,0,0,1,7-12.84c3.48-2.8,7.4-4.4,13.32-4.35,6.64.07,12,5,12,5"/></svg>