<?xml version="1.0" encoding="utf-8"?>
<!-- Generator: Adobe Illustrator 23.0.3, SVG Export Plug-In . SVG Version: 6.00 Build 0)  -->
<svg version="1.1" id="Layer_1" xmlns="http://www.w3.org/2000/svg" xmlns:xlink="http://www.w3.org/1999/xlink" x="0px" y="0px"
	 viewBox="0 0 258 311" style="enable-background:new 0 0 258 311;" xml:space="preserve">
<style type="text/css">
	.st0{opacity:0.88;}
	.st1{fill:#E47A3F;}
	.st2{fill:#46B19C;}
	.st3{fill:#30888D;}
	.st4{fill:#EFC94C;}
	.st5{fill:#EDB247;}
	.st6{fill:#8CC39E;}
</style>
<g id="Grupo_4" class="st0">
	<path id="Caminho_1" class="st1" d="M239,62.7L239,62.7l-69,8.1l0,0h0l-42.2,38.7v0.1l8.9,118.1v0l0.4,5.9l-0.4-5.9
		c1.9,24.2-2.1,42.3-9.8,55.2c0.4-0.6,0.8-1.1,1.2-1.7l0,0l0.2-0.4c1.5-2.3,2.9-4.8,4.1-7.3L255.5,50.9c0,0,0-0.1,0-0.1
		C252.3,57.2,246.1,61.6,239,62.7"/>
	<path id="Caminho_2" class="st2" d="M127.8,109.5l-2.7-33.4L91.7,80c-2.4,0.6-4.9,0.9-7.4,1c-0.5,0-1.1,0-1.6,0l0,0
		c-22.3,0-40.3-18-40.3-40.3c0,0,0,0,0,0c0-1.2,0.1-2.4,0.2-3.5c0,0,0,0,0,0L10.6,234.6c4.9-18.6,20.4-35.4,28.1-43.3L127.8,109.5z"
		/>
	<path id="Caminho_3" class="st3" d="M75.7,310.5c0.2,0,0.4,0,0.6,0c20.5-0.7,39.5-8.7,50.6-27.5c7.7-13,11.7-31,9.8-55.2
		l-8.8-118.1l0-0.1l-89.2,81.8c-7.7,7.9-23.2,24.7-28.1,43.3c-1,3.6-1.5,7.4-1.5,11.1c0,35.7,28.8,64.7,64.5,64.8c0.1,0,0.1,0,0.2,0
		c0.2,0,0.4,0,0.5,0C74.8,310.5,75.2,310.5,75.7,310.5"/>
	<path id="Caminho_4" class="st4" d="M120.9,28.7c0.9,2.9,1.4,5.8,1.7,8.8l0-0.3l0.1,1.3c0,0.1,0,0.2,0,0.2l2.5,37l0,0.4l44.8-5.2h0
		l0,0h0l49.8-45.6l1.2-1.1l1.1-1l0.1,0c3.9-3.1,8.7-4.8,13.6-4.9h-0.2L91.7,1.5c-2.9-0.7-5.9-1-8.9-1.1h-0.1
		C100.2,0.6,115.7,12,120.9,28.7"/>
	<path id="Caminho_5" class="st5" d="M222,23.1l-1.1,1l-1.2,1.1L170,70.8h0l69-8l0-0.1c7.1-1.1,13.3-5.6,16.5-12
		c4.3-8.5,2.7-18.9-4-25.7c-3.1-3.2-7.1-5.3-11.4-6.2c-1.5-0.3-3-0.5-4.5-0.5C230.7,18.4,225.9,20.1,222,23.1L222,23.1z"/>
	<path id="Caminho_6" class="st6" d="M42.5,37.2c-0.1,1.2-0.2,2.3-0.2,3.5C42.3,63,60.4,81,82.6,81c0,0,0,0,0,0l0,0
		c0.5,0,1.1,0,1.6,0c2.5-0.1,5-0.4,7.4-1l33.5-3.9l0-0.4l-2.5-37c0-0.1,0-0.2,0-0.2l-0.1-1.3l0,0.3c-1.6-20.8-18.9-37-39.8-37.1
		h-0.4c-0.4,0-0.8,0-1.1,0c-0.9,0-1.9,0.1-2.8,0.2C59.2,2.7,44.2,18,42.5,37.2"/>
</g>
</svg>
